{
  "accessors": [
    {
      "bufferView": 2,
      "componentType": 5126,
      "count": 234,
      "max": [
        1154.6099853515625,
        1123,
        0
      ],
      "min": [
        945.00299072265625,
        438.00299072265625,
        0
      ],
      "type": "VEC3"
    },
    {
      "bufferView": 2,
      "byteOffset": 2808,
      "componentType": 5126,
      "count": 234,
      "max": [
        0,
        0,
        1
      ],
      "min": [
        0,
        0,
        1
      ],
      "type": "VEC3"
    },
    {
      "bufferView": 1,
      "componentType": 5126,
      "count": 234,
      "max": [
        1,
        1
      ],
      "min": [
        0,
        0
      ],
      "type": "VEC2"
    },
    {
      "bufferView": 0,
      "componentType": 5125,
      "count": 1044,
      "max": [
        233
      ],
      "min": [
        0
      ],
      "type": "SCALAR"
    },
    {
      "bufferView": 2,
      "byteOffset": 5616,
      "componentType": 5126,
      "count": 10368,
      "max": [
        1154.6099853515625,
        1123,
        208.54299926757812
      ],
      "min": [
        737.6290283203125,
        438.00299072265625,
        -208.54299926757812
      ],
      "type": "VEC3"
    },
    {
      "bufferView": 2,
      "byteOffset": 130032,
      "componentType": 5126,
      "count": 10368,
      "max": [
        0.99903714656829834,
        0.99998825788497925,
        0.99975568056106567
      ],
      "min": [
        -0.99902433156967163,
        -0.99998825788497925,
        -0.99975401163101196
      ],
      "type": "VEC3"
    },
    {
      "bufferView": 1,
      "byteOffset": 1872,
      "componentType": 5126,
      "count": 10368,
      "max": [
        1,
        1
      ],
      "min": [
        0,
        -0.9722219705581665
      ],
      "type": "VEC2"
    },
    {
      "bufferView": 0,
      "byteOffset": 4176,
      "componentType": 5125,
      "count": 58362,
      "max": [
        10367
      ],
      "min": [
        0
      ],
      "type": "SCALAR"
    },
    {
      "bufferView": 2,
      "byteOffset": 254448,
      "componentType": 5126,
      "count": 234,
      "max": [
        1154.6099853515625,
        1123,
        1.2000000424450263e-05
      ],
      "min": [
        945.00299072265625,
        438.00299072265625,
        -0
      ],
      "type": "VEC3"
    },
    {
      "bufferView": 2,
      "byteOffset": 257256,
      "componentType": 5126,
      "count": 234,
      "max": [
        0,
        0,
        -1
      ],
      "min": [
        0,
        0,
        -1
      ],
      "type": "VEC3"
    },
    {
      "bufferView": 1,
      "byteOffset": 84816,
      "componentType": 5126,
      "count": 234,
      "max": [
        1,
        1
      ],
      "min": [
        0,
        0
      ],
      "type": "VEC2"
    },
    {
      "bufferView": 0,
      "byteOffset": 237624,
      "componentType": 5125,
      "count": 1044,
      "max": [
        233
      ],
      "min": [
        0
      ],
      "type": "SCALAR"
    }
  ],
  "asset": {
    "extras": {
      "author": "Abderrahmane Berrehouma (https://sketchfab.com/manidesign213)",
      "license": "CC-BY-NC-ND-4.0 (http://creativecommons.org/licenses/by-nc-nd/4.0/)",
      "source": "https://sketchfab.com/3d-models/golden-classic-chess-pawn-4addd960ceea4a4d885333b6885fe07f",
      "title": "Golden classic chess pawn"
    },
    "generator": "Sketchfab-9.72.0",
    "version": "2.0"
  },
  "bufferViews": [
    {
      "buffer": 0,
      "byteLength": 241800,
      "byteOffset": 0,
      "name": "floatBufferViews",
      "target": 34963
    },
    {
      "buffer": 0,
      "byteLength": 86688,
      "byteOffset": 241800,
      "byteStride": 8,
      "name": "floatBufferViews",
      "target": 34962
    },
    {
      "buffer": 0,
      "byteLength": 260064,
      "byteOffset": 328488,
      "byteStride": 12,
      "name": "floatBufferViews",
      "target": 34962
    }
  ],
  "buffers": [
    {
      "byteLength": 588552,
      "uri": "scene.bin"
    }
  ],
  "materials": [
    {
      "doubleSided": true,
      "emissiveFactor": [
        0,
        0,
        0
      ],
      "name": "Layer_1_Front_Inflation_Material",
      "pbrMetallicRoughness": {
        "baseColorFactor": [
          0.49871995309357209,
          0.35055226570583214,
          0.20558717651204933,
          1
        ],
        "metallicFactor": 0,
        "roughnessFactor": 0.81241824694383513
      }
    },
    {
      "doubleSided": true,
      "emissiveFactor": [
        0,
        0,
        0
      ],
      "name": "Layer_1_Extrusion_Material",
      "pbrMetallicRoughness": {
        "baseColorFactor": [
          1,
          1,
          1,
          1
        ],
        "metallicFactor": 0,
        "roughnessFactor": 0.81241824694383513
      }
    },
    {
      "doubleSided": true,
      "emissiveFactor": [
        0,
        0,
        0
      ],
      "name": "Layer_1_Back_Inflation_Material",
      "pbrMetallicRoughness": {
        "baseColorFactor": [
          1,
          1,
          1,
          1
        ],
        "metallicFactor": 0,
        "roughnessFactor": 0.81241824694383513
      }
    }
  ],
  "meshes": [
    {
      "name": "Layer_1_Front_Inflation_Material",
      "primitives": [
        {
          "attributes": {
            "NORMAL": 1,
            "POSITION": 0,
            "TEXCOORD_0": 2
          },
          "indices": 3,
          "material": 0,
          "mode": 4
        }
      ]
    },
    {
      "name": "Layer_1_Extrusion_Material",
      "primitives": [
        {
          "attributes": {
            "NORMAL": 5,
            "POSITION": 4,
            "TEXCOORD_0": 6
          },
          "indices": 7,
          "material": 1,
          "mode": 4
        }
      ]
    },
    {
      "name": "Layer_1_Back_Inflation_Material",
      "primitives": [
        {
          "attributes": {
            "NORMAL": 9,
            "POSITION": 8,
            "TEXCOORD_0": 10
          },
          "indices": 11,
          "material": 2,
          "mode": 4
        }
      ]
    }
  ],
  "nodes": [
    {
      "children": [
        1
      ],
      "name": "RootNode (gltf orientation matrix)",
      "rotation": [
        -0.70710678118654746,
        -0,
        -0,
        0.70710678118654757
      ]
    },
    {
      "children": [
        2
      ],
      "name": "RootNode (model correction matrix)"
    },
    {
      "children": [
        3,
        9,
        11
      ],
      "matrix": [
        1,
        0,
        0,
        0,
        0,
        -4.3711390063094768e-08,
        0.999999999999999,
        0,
        0,
        -0.999999999999999,
        -4.3711390063094768e-08,
        0,
        0,
        0,
        0,
        1
      ],
      "name": "Collada visual scene group"
    },
    {
      "children": [
        4,
        5,
        6,
        7,
        8
      ],
      "matrix": [
        0.074909000000000003,
        0.0012689999999999999,
        0.039438000000000001,
        0,
        -0.010135,
        0.082402000000000003,
        0.016598000000000002,
        0,
        -0.038135000000000002,
        -0.019406,
        0.073057999999999998,
        0,
        -71.383899999999997,
        -66.015699999999995,
        -41.079700000000003,
        1
      ],
      "name": "Layer_1"
    },
    {
      "mesh": 0,
      "name": "Layer_1_Front_Inflation_Material"
    },
    {
      "name": "Layer_1_Front_Bevel_Material"
    },
    {
      "mesh": 1,
      "name": "Layer_1_Extrusion_Material"
    },
    {
      "name": "Layer_1_Back_Bevel_Material"
    },
    {
      "mesh": 2,
      "name": "Layer_1_Back_Inflation_Material"
    },
    {
      "children": [
        10
      ],
      "name": "Image_Based_Light__0"
    },
    {
      "name": "Image_Based_Light__0"
    },
    {
      "children": [
        12
      ],
      "matrix": [
        0.99620890441773269,
        -0.052026133245473505,
        0.069721590761721478,
        0,
        0,
        0.80146013655675652,
        0.59804819998928638,
        0,
        -0.086993210992701769,
        -0.59578094210032417,
        0.79842172457369265,
        0,
        -1056.6015903183347,
        -631.18951134966198,
        -829.47623701701741,
        1
      ],
      "name": "Infinite_Light__0"
    },
    {
      "name": "Infinite_Light__0"
    }
  ],
  "scene": 0,
  "scenes": [
    {
      "name": "OSG_Scene",
      "nodes": [
        0
      ]
    }
  ]
}

